<?xml version="1.0" encoding="utf-8"?>
<!-- Generator: Adobe Illustrator 24.0.1, SVG Export Plug-In . SVG Version: 6.00 Build 0)  -->
<svg version="1.1" xmlns="http://www.w3.org/2000/svg" xmlns:xlink="http://www.w3.org/1999/xlink" x="0px" y="0px"
	 viewBox="0 0 200 60" style="enable-background:new 0 0 200 60;" xml:space="preserve">
<style type="text/css">
	.st0{display:none;}
	.st1{display:inline;}
</style>
<g id="Camada_1" class="st0">
	<g class="st1">
		<path d="M27.2,11.6c-3-3.1-7.8-3.8-11.3-3.7c-1.1,0-2.1,0.1-2.8,0.2c-0.4,0.1-0.7,0.1-0.9,0.2c-0.5,0.1-1.1,0.1-1.5,0.2
			c-1.3,0.2-1.5,0.5-1.5,7.2c0.1,6.8,0.5,19.9,0.7,27c0.1,7.2,0.1,8.4,1.3,9c1.3,0.7,3.9,0.7,4.8-0.1c0.9-0.8,0.1-2.3,0.2-9.4
			c0-2.1,0.1-4.6,0.3-7.2c3.5-0.4,9.4-1.8,12.3-6.2C31.8,24,31.2,15.8,27.2,11.6z M23.2,29.2c-1.7,2.1-4.4,2.8-6.5,3.3
			c0.3-5.4,0.8-11.1,0.9-14.8c0.1-2,0.1-3.4,0.1-4.4c2.1,0.6,5.1,1.7,6.5,4.6C25.8,21.1,25.4,26.4,23.2,29.2z"/>
		<path d="M54.8,14.4c-0.1-0.7-0.3-1.3-0.5-1.7c-0.2-0.4-0.5-0.8-0.7-1.2c-1.7-2-5.2-3.2-8.2-3.5C44.8,8,44.2,8,43.7,8
			c-2.3,0-4.3,0.5-5.8,0.9c-1.8,0.5-2.9,1.1-3.3,2.2c-0.3,1.1,0.1,2.9,0.9,3.3c0.8,0.5,2.1-0.3,3.6-0.9c1.6-0.5,3.5-1.1,5.2-0.9
			c1.7,0.2,3.3,1,4,2.2c0.1,0.1,0.1,0.3,0.2,0.5v4.4c-0.2-0.2-0.5-0.4-0.7-0.5c-1.9-1.3-5.6-1.5-8.6,0.3c-2.9,1.9-4.9,6-5.6,11.6
			c-0.7,5.7-0.1,13,2.3,16.8c2.3,3.9,6.4,4.3,9.4-0.1c1.3-2,2.3-5,3.2-8.3v4.6c0,6.6,0.1,7.4,1.2,7.8c1.1,0.3,3,0.3,3.9-0.2
			c0.9-0.5,0.7-1.4,0.9-7c0.1-5.7,0.4-16.2,0.5-22.6c0.1-1.9,0.1-3.5,0.1-4.8C55,16.4,55,15.4,54.8,14.4z M48.1,28.8
			c-1.3,5.4-3,13.3-4.4,16.2c-1.7,3.6-3-0.7-3.3-5.9c-0.3-5.3,0.5-11.6,1.7-14.9c0.9-2.3,2.1-3.1,3.2-3.1c0.4,0,0.8,0.1,1.2,0.3
			c0.6,0.3,1.1,0.8,1.5,1.2V28.8z"/>
		<path d="M80.6,41.7c-0.3-0.7-0.7-1.2-2.2-0.7c-1.6,0.6-4.4,2.2-7.2,1.3c-1.6-0.5-3.1-1.8-4.5-3.1c3.5-1.1,9.1-4,11.4-9.4
			c2.5-6,0.7-15.3-3.9-19.2c-2.2-1.8-5-2.5-7.6-2.5c-1.1,0-2.2,0.1-3.2,0.2c-1.4,0.1-3.2,0.2-4.3,0.3c-1.3,0.3-1.7,0.6-1.7,7.2
			c0,6.6,0.3,19.5,0.3,26.5c0.1,7-0.1,8.2,1.2,8.8c1.3,0.5,3.9,0.6,4.8-0.2c0.9-0.7,0.1-2.3,0.4-9.2v-0.9c1.4,2.1,3.7,4.4,6.5,5.2
			c3.3,0.8,7.1-0.7,8.8-1.9C81.2,43.1,80.9,42.3,80.6,41.7z M64.4,36c0.5-6.8,1.3-15.1,1.6-20c0.1-1.5,0.1-2.7,0.1-3.6
			c1.9,0.5,4.1,1.5,5.5,3.9c2,3.5,2.5,10,0.6,13.7C70.4,33.8,66.5,35,64.4,36z"/>
		<path d="M102.3,14.4c-0.1-0.7-0.3-1.3-0.5-1.7c-0.2-0.4-0.5-0.8-0.7-1.2c-1.7-2-5.2-3.2-8.2-3.5C92.3,8,91.8,8,91.3,8
			c-2.3,0-4.3,0.5-5.8,0.9c-1.8,0.5-2.9,1.1-3.3,2.2c-0.3,1.1,0.1,2.9,0.9,3.3c0.8,0.5,2.1-0.3,3.6-0.9c1.6-0.5,3.5-1.1,5.2-0.9
			c1.7,0.2,3.3,1,4,2.2c0.1,0.1,0.1,0.3,0.2,0.5v4.4c-0.2-0.2-0.5-0.4-0.7-0.5c-1.9-1.3-5.6-1.5-8.6,0.3c-2.9,1.9-4.9,6-5.6,11.6
			C80.4,37,81,44.2,83.4,48c2.3,3.9,6.4,4.3,9.4-0.1c1.3-2,2.3-5,3.2-8.3v4.6c0,6.6,0.1,7.4,1.2,7.8c1.1,0.3,3,0.3,3.9-0.2
			c0.9-0.5,0.7-1.4,0.9-7c0.1-5.7,0.4-16.2,0.5-22.6c0.1-1.9,0.1-3.5,0.1-4.8C102.5,16.4,102.5,15.4,102.3,14.4z M95.6,28.8
			c-1.3,5.4-3,13.3-4.4,16.2c-1.7,3.6-3-0.7-3.3-5.9c-0.3-5.3,0.5-11.6,1.7-14.9c0.9-2.3,2.1-3.1,3.2-3.1c0.4,0,0.8,0.1,1.2,0.3
			c0.6,0.3,1.1,0.8,1.5,1.2V28.8z"/>
		<path d="M126.1,37.8c-2.4-4.8-9.6-9.7-12.6-14.6c-3-4.8-1.7-9.8,0.5-11.6c2.2-1.7,5.2-0.4,6.4,1.5c1.1,1.9,0.5,4.5,0.7,5.9
			c0.2,1.5,1.2,1.7,2.3,1.9c1.1,0.2,2.1,0.3,2.9-1.5c0.8-1.8,1.4-5.4-1.3-8.1c-1.9-1.9-5.2-3.3-8.7-3.3c-1.6,0-3.2,0.3-4.7,1
			c-4.8,2.1-8.5,8.1-5.9,14.3c2.5,6.1,11.4,12.4,13.6,17.2c2.3,4.8-2,8.1-4.5,8c-2.5-0.1-3.2-3.5-2.9-6c0.3-2.5,1.7-4.1,2-4.8
			c0.2-0.9-0.8-1.1-1.7-1.3c-0.9-0.1-1.9-0.3-3.1,0.9c-1.1,1.2-2.5,3.9-2.4,6.6c0.1,2.7,1.7,5.5,4.8,6.9c3.1,1.4,7.8,1.3,11.2-1.1
			C126.2,47.3,128.5,42.6,126.1,37.8z"/>
		<path d="M138.9,9.1c-0.2-0.9-0.8-1.7-1.7-2.1c-0.8-0.3-1.8-0.5-2.8-0.5H134c-1.1,0.1-2.3,0.1-2.9,0.5c-0.7,0.3-1.3,1-1.5,2.1
			c-0.3,1.1-0.2,2.5,0.1,3.6c0.3,1,0.8,1.7,1.6,2.1c0.7,0.4,1.8,0.6,2.9,0.7c1.1,0.1,2.3,0.1,3-0.5c0.8-0.6,1.3-1.7,1.6-2.8
			C139,11,139.1,10.1,138.9,9.1z M135.8,41.5c0.1-3.5,0.5-8.7,0.9-12.6c0.4-3.9,0.8-6.6,0.7-7.9c0-1.4-0.4-1.5-1.7-1.5
			c-0.9-0.1-2.4-0.2-3.5-0.3c-0.4,0-0.7,0-1.1,0.1c-1.1,0.1-1.3,0.4-1.3,2.2c-0.1,1.8,0,5-0.2,9.2c-0.1,4.2-0.5,9.5-0.3,13
			c0.1,3.5,0.7,5.3,1.7,6.4c0.9,1.1,2.1,1.6,3.3,1.5c1.1-0.1,2.3-0.7,2.6-1.3c0.3-0.5,0-1-0.4-2.2C136.2,46.9,135.8,45,135.8,41.5z"
			/>
		<path d="M161.5,7.9c-3.8-0.4-13.3-0.2-17,0.1c-4.4,0.4-4.7,0.9-4.8,1.7c-0.1,0.8,0.1,1.7,4.3,2.1c1.1,0.1,3.9,0.2,3.9,0.2
			s0.1,2.6,0,5.2c-0.1,6.3-0.4,18.6-0.5,25.3c-0.1,6.7-0.1,7.4,1,8.2c1.5,1,4.4,0.9,5.2,0.1c1.2-1.2-0.3-0.4,0.1-8.3
			c0.3-6.6,1.5-19,2-25.2c0.2-2.8,0.5-4.4,0.5-5.4c1.7-0.1,3.3-0.1,4.5-0.3c4.3-0.3,4.4-0.9,4.7-1.6C165.5,9.3,165.6,8.3,161.5,7.9z
			"/>
		<path d="M176.9,7.1c-8.7,0.1-12.4,9.8-13,15.5c-0.5,5.5-0.4,11.2,0.7,16.5c1.1,5,4,9.8,8.3,11.2c4.7,1.5,9.8-1.7,12-6.7
			c2.5-5.4,3-11.8,3.1-17.9C188.5,9.7,180.3,7.1,176.9,7.1z M184.1,29.6l-1.7-0.6c-0.1,0.3-0.1,0.6-0.2,0.9l-0.3,0.8l1.7,0.6
			l-0.6,1.7l-1.7-0.6l-0.3,0.8c-0.1,0.3-0.2,0.5-0.4,0.8l1.7,0.6l-0.6,1.7l-2.3-0.8c-1.4,1.2-3.4,1.6-5.2,0.9
			c-1.8-0.7-3.1-2.2-3.4-4l-2.3-0.8l0.6-1.7l1.7,0.6c0.1-0.3,0.1-0.6,0.2-0.9l0.3-0.8l-1.7-0.6l0.6-1.7l1.7,0.6l0.3-0.8
			c0.1-0.3,0.2-0.5,0.4-0.8l-1.7-0.6l0.6-1.7l2.3,0.8c0.6-0.5,1.3-0.9,2.1-1.1l-0.9-1.8l1.6-0.8l1.2,2.5c0.4,0,0.8,0.1,1.2,0.3
			c0.4,0.1,0.8,0.3,1.1,0.6l2.5-1.2l0.8,1.6l-1.8,0.9c0.5,0.6,0.8,1.4,0.9,2.2l2.3,0.8L184.1,29.6z M175.1,28.3l3.3,1.2l0.6-1.7
			l-3.3-1.2L175.1,28.3z M173.9,31.6l3.3,1.2l0.6-1.7l-3.3-1.2L173.9,31.6z"/>
	</g>
</g>
<g id="Camada_2">
	<g>
		<path d="M35.9,22.2c-0.4-1.3-1-2.4-1.7-3.3c-0.8-0.9-1.6-1.6-2.7-2.1c-1-0.5-2.2-0.8-3.5-0.8c-1.4,0-2.6,0.3-3.6,0.8
			c-1,0.5-1.8,1.3-2.6,2.2h-0.2l0.4-2.5h-7.4L9.1,51h7.5l2.2-13.6H19c0.5,0.9,1.3,1.7,2.4,2.2c1.1,0.5,2.3,0.8,3.6,0.8
			c1.6,0,3.1-0.3,4.5-1c1.4-0.6,2.6-1.6,3.7-2.8c1.1-1.2,1.9-2.7,2.5-4.4c0.6-1.7,0.9-3.7,0.9-5.9C36.5,24.9,36.3,23.5,35.9,22.2z
			 M28.2,29.6c-0.2,0.7-0.5,1.3-0.9,1.9c-0.4,0.6-0.9,1.1-1.4,1.4c-0.6,0.4-1.2,0.6-2,0.6c-1.1,0-2.1-0.4-2.8-1.2
			c-0.7-0.8-1.1-1.8-1.1-3c0-0.8,0.1-1.6,0.3-2.4c0.2-0.7,0.5-1.4,0.9-2c0.4-0.6,0.9-1,1.5-1.4c0.6-0.3,1.2-0.5,2-0.5
			c1.2,0,2.1,0.4,2.8,1.2c0.7,0.8,1,1.9,1,3.3C28.5,28.2,28.4,28.9,28.2,29.6z"/>
		<path d="M62.8,25.7l1.4-9.2h-7.6l-0.4,2.4h-0.1c-0.5-0.9-1.3-1.7-2.3-2.2c-1.1-0.5-2.3-0.8-3.8-0.8c-1.6,0-3.1,0.3-4.5,1
			c-1.4,0.7-2.6,1.7-3.6,3c-1,1.3-1.8,2.8-2.4,4.6c-0.6,1.8-0.9,3.7-0.9,5.9c0,1.5,0.2,2.9,0.6,4.1c0.4,1.2,1,2.3,1.7,3.2
			c0.7,0.9,1.6,1.6,2.6,2.1c1,0.5,2.1,0.7,3.3,0.7c1.6,0,3-0.3,4.4-0.9c1.4-0.6,2.6-1.7,3.5-3.4h0.1c0.1,0.6,0.1,1.2,0.2,1.8
			c0.1,0.6,0.2,1.1,0.4,1.7h7.4c-0.3-1.1-0.4-2.2-0.6-3.3C62,35.1,62,34.1,62,33.2c0-1,0.1-2.1,0.2-3.2
			C62.3,28.9,62.5,27.5,62.8,25.7z M54.7,29.3c-0.2,0.8-0.6,1.4-1,2c-0.4,0.6-1,1.1-1.6,1.5c-0.6,0.4-1.3,0.6-2.1,0.6
			c-1.3,0-2.2-0.4-2.7-1.3c-0.5-0.9-0.8-1.9-0.8-3c0-1,0.1-1.8,0.4-2.6c0.3-0.8,0.7-1.5,1.1-2c0.5-0.6,1-1,1.6-1.3
			c0.6-0.3,1.3-0.5,1.9-0.5c1,0,1.8,0.4,2.4,1.2c0.6,0.8,0.9,1.8,0.9,3.1C55,27.8,54.9,28.5,54.7,29.3z"/>
		<path d="M85.7,16.1c-0.3,0-0.7,0-1.2,0c-1.6,0-3,0.4-4.2,1.1c-1.2,0.8-2.3,1.9-3.3,3.4h-0.2l0.6-4.1h-7.5l-3.6,23.1h7.8l1.6-10.6
			c0.2-1.6,0.8-2.9,1.8-4c1-1.1,2.5-1.6,4.5-1.6c0.7,0,1.4,0,1.9,0.1c0.5,0.1,1,0.1,1.5,0.2l1.2-7.6C86.3,16.1,86,16.1,85.7,16.1z"
			/>
		<path d="M110.5,25.7l1.4-9.2h-7.6l-0.4,2.4h-0.1c-0.5-0.9-1.3-1.7-2.3-2.2c-1.1-0.5-2.3-0.8-3.8-0.8c-1.6,0-3.1,0.3-4.5,1
			c-1.4,0.7-2.6,1.7-3.6,3c-1,1.3-1.8,2.8-2.4,4.6c-0.6,1.8-0.9,3.7-0.9,5.9c0,1.5,0.2,2.9,0.6,4.1c0.4,1.2,1,2.3,1.7,3.2
			c0.7,0.9,1.6,1.6,2.6,2.1c1,0.5,2.1,0.7,3.3,0.7c1.6,0,3-0.3,4.4-0.9c1.4-0.6,2.6-1.7,3.5-3.4h0.1c0.1,0.6,0.1,1.2,0.2,1.8
			c0.1,0.6,0.2,1.1,0.4,1.7h7.4c-0.3-1.1-0.4-2.2-0.6-3.3c-0.1-1.1-0.2-2.2-0.2-3.1c0-1,0.1-2.1,0.2-3.2
			C110.1,28.9,110.3,27.5,110.5,25.7z M102.5,29.3c-0.2,0.8-0.6,1.4-1,2c-0.4,0.6-1,1.1-1.6,1.5c-0.6,0.4-1.3,0.6-2.1,0.6
			c-1.3,0-2.2-0.4-2.7-1.3c-0.5-0.9-0.8-1.9-0.8-3c0-1,0.1-1.8,0.4-2.6c0.3-0.8,0.7-1.5,1.1-2c0.5-0.6,1-1,1.6-1.3
			c0.6-0.3,1.3-0.5,1.9-0.5c1,0,1.8,0.4,2.4,1.2c0.6,0.8,0.9,1.8,0.9,3.1C102.8,27.8,102.7,28.5,102.5,29.3z"/>
		<path d="M126.3,25.1c-1.3-0.5-2.2-0.9-2.7-1.2c-0.5-0.3-0.7-0.8-0.7-1.3c0-0.5,0.2-0.9,0.6-1.2c0.4-0.3,0.8-0.4,1.3-0.4
			c1.2,0,2,0.7,2.2,2.2h6.5c-0.3-2.4-1.3-4.2-2.9-5.4c-1.6-1.2-3.5-1.8-5.7-1.8c-2.9,0-5.1,0.7-6.7,2.1c-1.6,1.4-2.4,3.2-2.4,5.4
			c0,1.8,0.5,3.2,1.4,4.3c1,1.1,2.3,2,4.1,2.6c0.7,0.3,1.3,0.5,1.8,0.7c0.5,0.2,0.8,0.4,1.1,0.7c0.3,0.2,0.4,0.5,0.5,0.7
			c0.1,0.3,0.1,0.5,0.1,0.8c0,0.6-0.2,1.1-0.6,1.5c-0.4,0.4-0.9,0.6-1.5,0.6c-0.7,0-1.3-0.2-1.8-0.7c-0.4-0.4-0.7-1.1-0.8-1.9h-6.7
			c0.1,1.4,0.4,2.5,1,3.5c0.5,1,1.2,1.8,2,2.4c0.8,0.6,1.7,1.1,2.7,1.4c1,0.3,2.1,0.4,3.3,0.4c2.9,0,5.3-0.7,7.1-2.2
			c1.8-1.4,2.7-3.5,2.7-6.2c0-1.7-0.5-3.1-1.6-4.2C129.7,26.7,128.2,25.8,126.3,25.1z"/>
		<path d="M140.3,4.9l-1.1,7.2h7.8l1.1-7.2H140.3z M138.5,16.5l-3.6,23.1h7.8l3.6-23.1H138.5z"/>
		<path d="M158.2,28.5l0.9-5.2h4.8l1.1-6.8h-4.8l1.2-7.2h-7.8l-1.2,7.2h-2.5l-1.1,6.8h2.5l-0.9,5.4c-0.1,0.5-0.2,1.2-0.3,2
			c-0.1,0.8-0.1,1.5-0.1,1.9c0,2.5,0.6,4.3,1.8,5.5c1.2,1.2,2.9,1.8,5.2,1.8c1.7,0,3.2-0.2,4.5-0.5l1.1-6.6
			c-0.4,0.1-0.8,0.2-1.2,0.2c-0.4,0-0.8,0.1-1.1,0.1c-0.9,0-1.5-0.2-1.9-0.6c-0.4-0.4-0.5-1-0.5-1.8c0-0.2,0-0.6,0.1-1
			C158,29.2,158.1,28.9,158.2,28.5z"/>
		<path d="M189.3,22.7c-0.5-1.4-1.2-2.6-2.2-3.6c-1-1-2.1-1.8-3.5-2.4c-1.4-0.6-3-0.8-4.7-0.8c-1.9,0-3.6,0.3-5.2,1
			c-1.6,0.7-3,1.6-4.2,2.8c-1.2,1.2-2.1,2.6-2.8,4.3c-0.7,1.7-1,3.5-1,5.5c0,1.6,0.2,3,0.7,4.4c0.5,1.3,1.2,2.5,2.2,3.5
			c1,1,2.1,1.7,3.5,2.3c1.4,0.6,3,0.8,4.8,0.8c2,0,3.8-0.4,5.4-1.1c1.6-0.7,3-1.7,4.1-2.9c1.2-1.2,2-2.6,2.7-4.2
			c0.6-1.6,0.9-3.3,0.9-5C190,25.6,189.8,24,189.3,22.7z M183.7,29.2l-1.3-0.8c-0.1,0.2-0.2,0.4-0.3,0.7l-0.4,0.6l1.2,0.7l-0.7,1.2
			L181,31l-0.4,0.6c-0.1,0.2-0.3,0.4-0.4,0.6l1.3,0.8l-0.7,1.2l-1.7-1c-1.3,0.7-2.9,0.8-4.3,0c-1.4-0.8-2.1-2.2-2.1-3.7l-1.7-1
			l0.7-1.2l1.3,0.8c0.1-0.2,0.2-0.4,0.3-0.7l0.4-0.6l-1.2-0.7l0.7-1.2l1.2,0.7l0.4-0.6c0.1-0.2,0.3-0.4,0.4-0.6l-1.3-0.8l0.7-1.2
			l1.7,1c0.6-0.3,1.2-0.5,1.8-0.6l-0.4-1.6l1.4-0.4l0.6,2.1c0.3,0.1,0.6,0.2,0.9,0.4c0.3,0.2,0.6,0.4,0.8,0.6l2.1-0.6l0.4,1.4
			l-1.6,0.4c0.3,0.6,0.4,1.2,0.4,1.9l1.7,1L183.7,29.2z M176.8,26.9l2.5,1.4l0.7-1.2l-2.5-1.4L176.8,26.9z M175.3,29.4l2.5,1.4
			l0.7-1.2l-2.5-1.4L175.3,29.4z"/>
	</g>
</g>
</svg>
